<svg width="15" height="17" viewBox="0 0 15 17" fill="none" xmlns="http://www.w3.org/2000/svg">
<path d="M8.90924 15.3491C8.17744 16.2731 6.7757 16.2748 6.04192 15.3523L0.934337 8.93093C0.166302 7.96571 0.846098 6.53957 2.07924 6.52749L3.46693 6.51369L3.46817 1.84903C3.46822 1.60861 3.51565 1.37055 3.60773 1.14847C3.69982 0.92638 3.83477 0.724616 4.00487 0.554704C4.17496 0.384792 4.37687 0.250062 4.59906 0.158211C4.82124 0.0663617 5.05935 0.0191922 5.29977 0.0193987L9.65805 0.0233419C10.143 0.0239048 10.6079 0.216938 10.9507 0.560042C11.2934 0.903145 11.4859 1.36826 11.486 1.85322L11.4865 6.5127L12.8419 6.51344C14.0804 6.51418 14.7713 7.94353 14.003 8.91442L8.90924 15.3491ZM6.72418 14.81C6.81407 14.923 6.92833 15.0143 7.05843 15.0769C7.18853 15.1396 7.3311 15.1721 7.47551 15.1719C7.61991 15.1717 7.76241 15.1389 7.89236 15.076C8.02232 15.013 8.13637 14.9215 8.22599 14.8083L13.3198 8.37364C13.636 7.9736 13.3518 7.38525 12.8416 7.38475L11.0504 7.38401C10.9932 7.38402 10.9365 7.37276 10.8837 7.35086C10.8308 7.32896 10.7827 7.29686 10.7423 7.25639C10.7018 7.21593 10.6697 7.16788 10.6478 7.11501C10.6259 7.06214 10.6146 7.00546 10.6146 6.94824L10.6149 1.85322C10.6148 1.59916 10.5139 1.35553 10.3343 1.17584C10.1547 0.996147 9.91112 0.895102 9.65707 0.8949L5.29878 0.890957C5.17286 0.890862 5.04816 0.915579 4.93179 0.963693C4.81542 1.01181 4.70968 1.08238 4.62059 1.17137C4.53151 1.26037 4.46083 1.36604 4.41259 1.48236C4.36436 1.59867 4.33951 1.72335 4.33948 1.84928L4.33825 6.94528C4.33827 7.06009 4.29297 7.17028 4.2122 7.25188C4.13143 7.33348 4.02171 7.3799 3.9069 7.38106L2.08787 7.3988C1.58012 7.40373 1.30036 7.9911 1.61635 8.38843L6.72418 14.81Z" fill="#6F6F6F"/>
</svg>
